<svg width="1424" height="1358" viewBox="0 0 1424 1358" fill="none" xmlns="http://www.w3.org/2000/svg">
<g clip-path="url(#clip0_6_5)">
<path d="M765.1 151.771L1171.5 163.059C1213.71 164.231 1246.97 199.396 1245.8 241.601L1234.51 648.002C1234.45 650.168 1234.21 652.287 1233.81 654.345C1233.71 654.831 1233.65 655.323 1233.64 655.818L1233.34 666.35C1225.67 942.793 995.339 1160.67 718.896 1152.99C628.821 1150.49 544.963 1124.35 473.1 1080.68C468.164 1077.68 468.106 1070.6 472.906 1067.38C516.899 1037.92 558.508 1008.27 598.765 977.769C601.014 976.065 603.99 975.673 606.619 976.696C642.841 990.793 682.06 999.012 723.141 1000.15C915.173 1005.49 1075.17 854.138 1080.5 662.105L1084.67 511.963C1082.95 479.659 1043.24 463.618 1019.57 487.119L996.867 509.665C720.738 792.937 546.174 947.462 223.458 1130.95C186.755 1151.82 140.083 1138.98 119.214 1102.28C98.3451 1065.58 111.182 1018.9 147.885 998.035C456.393 822.625 619.676 678.068 896.228 393.853L914.792 374.43C937.561 350.608 921.532 311.066 888.603 309.822L786.852 305.976L742.457 304.743C550.424 299.409 390.428 450.758 385.094 642.79C384.15 676.76 388.11 709.727 396.33 741.012C397.171 744.215 396.016 747.623 393.355 749.593C355.654 777.496 316.67 804.542 275.27 831.496C271.043 834.248 265.358 832.429 263.591 827.705C241.628 768.965 230.406 705.091 232.255 638.545C239.933 362.102 470.259 144.225 746.702 151.903L757.329 152.198C757.818 152.212 758.308 152.178 758.793 152.112C760.849 151.829 762.956 151.711 765.1 151.771Z" fill="#080908"/>
</g>
<defs>
<clipPath id="clip0_6_5">
<rect width="1424" height="1358" fill="white"/>
</clipPath>
</defs>
</svg>